<svg height="496pt" viewBox="0 0 496 496" width="496pt" xmlns="http://www.w3.org/2000/svg" xmlns:xlink="http://www.w3.org/1999/xlink"><linearGradient id="a" gradientUnits="userSpaceOnUse" x1="248" x2="248" y1="496" y2="0"><stop offset="0" stop-color="#9f2fff"/><stop offset="1" stop-color="#0bb1d3"/></linearGradient><path d="m440 0h-3.3125l-128 128h-292.6875c-8.824219 0-16 7.175781-16 16v16c0 8.824219 7.175781 16 16 16v224h99.054688l-32.839844 65.6875c-1.445313 2.886719-2.214844 6.136719-2.214844 9.367188 0 11.546874 9.398438 20.945312 20.945312 20.945312h11.054688c7.976562 0 15.152344-4.441406 18.734375-11.574219l29.265625-58.539062v49.167969c0 11.546874 9.398438 20.945312 20.945312 20.945312h6.109376c11.546874 0 20.945312-9.398438 20.945312-20.945312v-49.167969l29.265625 58.539062c3.574219 7.132813 10.757813 11.574219 18.734375 11.574219h11.054688c11.546874 0 20.945312-9.398438 20.945312-20.945312 0-3.230469-.769531-6.480469-2.207031-9.367188l-32.847657-65.6875h99.054688v-196.6875l144-144v-3.3125c0-30.871094-25.128906-56-56-56zm-64 83.3125 12.6875 12.6875-124.6875 124.6875-12.6875-12.6875zm-168 209.648438v-52.394532c6.457031.921875 12.65625 3.007813 18.398438 6.089844l-3.832032 26.777344 26.679688-3.816406c4.347656 8.09375 6.753906 17.078124 6.753906 26.382812 0 13.742188-4.992188 26.320312-13.230469 36.078125zm22.816406 49.75c-8.847656 5.847656-19.433594 9.289062-30.816406 9.289062-28.167969 0-51.535156-20.894531-55.433594-48h51.839844zm10.617188-88.144532 4.222656-29.597656 25.375 25.375zm-225.433594-110.566406h276.6875l-16 16h-260.6875zm100.425781 333.257812c-.851562 1.695313-2.546875 2.742188-4.425781 2.742188h-11.054688c-2.730468 0-4.945312-2.214844-4.945312-4.945312 0-.765626.175781-1.527344.519531-2.207032l36.425781-72.847656h22.109376zm75.574219-2.203124c0 2.730468-2.214844 4.945312-4.945312 4.945312h-6.109376c-2.730468 0-4.945312-2.214844-4.945312-4.945312v-75.054688h16zm79.480469-2.214844c.335937.679687.519531 1.449218.519531 2.214844 0 2.730468-2.214844 4.945312-4.945312 4.945312h-11.054688c-1.878906 0-3.574219-1.046875-4.425781-2.734375l-38.628907-77.265625h22.109376zm64.519531-88.839844h-304v-208h228.6875l-28.222656 28.222656-3.695313 25.855469c-9.027343-3.925781-18.761719-6.078125-28.769531-6.078125h-8v64h-64v8c0 39.703125 32.296875 72 72 72s72-32.296875 72-72c0-10.007812-2.152344-19.742188-6.089844-28.769531l25.859375-3.695313 44.230469-44.222656zm-48-139.3125-12.6875-12.6875 124.6875-124.6875 12.6875 12.6875zm136-136-36.6875-36.6875 12.6875-12.6875 36.6875 36.6875zm24-24-36.6875-36.6875 31.871094-31.871094c19.519531 1.542969 35.144531 17.160156 36.6875 36.6875zm-272 107.3125h-8c-39.703125 0-72 32.296875-72 72v8h80zm-16 64h-47.433594c3.511719-24.496094 22.9375-43.910156 47.433594-47.433594zm-96 96h16v16h-32v-72h16zm32 0h16v16h-16zm224 16h-16v-16h16zm0-32h-16v-16h16zm0-32h-16v-16h16zm0 0" fill="url(#a)"/></svg>