<?xml version="1.0"?>
<svg xmlns="http://www.w3.org/2000/svg" xmlns:xlink="http://www.w3.org/1999/xlink" viewBox="0 0 512 512" width="512" height="512"><defs><linearGradient id="linear-gradient" x1="37.172" y1="485.172" x2="474.828" y2="47.515" gradientUnits="userSpaceOnUse"><stop offset="0" stop-color="#41dfd0"/><stop offset="1" stop-color="#ee83ef"/></linearGradient></defs><g id="gradient"><path d="M480,366.624a24,24,0,1,0-31.107-29.094l-2.343.586a341.826,341.826,0,0,1-167.421-.507,23.994,23.994,0,0,0-46.258,0,341.794,341.794,0,0,1-167.422.506l-2.342-.585A24,24,0,1,0,32,366.624V448H16v16H48v24a8,8,0,0,0,8,8H88a8,8,0,0,0,8-8V464h96v24a8,8,0,0,0,8,8h32a8,8,0,0,0,8-8V464h32v24a8,8,0,0,0,8,8h32a8,8,0,0,0,8-8V464h96v24a8,8,0,0,0,8,8h32a8,8,0,0,0,8-8V464h32V448H480ZM40,352a8,8,0,1,1,8-8A8.009,8.009,0,0,1,40,352ZM224,480H208V456a8,8,0,0,0-8-8H88a8,8,0,0,0-8,8v24H64V436a4,4,0,0,1,4-4H220a4,4,0,0,1,4,4ZM72,408a8.009,8.009,0,0,1,8-8H208a8,8,0,0,1,0,16H80A8.009,8.009,0,0,1,72,408Zm176,40h-8V436a20.013,20.013,0,0,0-10.4-17.54A23.992,23.992,0,0,0,208,384H80a23.992,23.992,0,0,0-21.6,34.46A20.013,20.013,0,0,0,48,436V366.624a24.124,24.124,0,0,0,13.933-12.9,357.07,357.07,0,0,0,86.213,10.546A357.525,357.525,0,0,0,234.1,353.79,24.123,24.123,0,0,0,248,366.624Zm8-96a8,8,0,1,1,8-8A8.009,8.009,0,0,1,256,352Zm192,96v32H432V456a8,8,0,0,0-8-8H312a8,8,0,0,0-8,8v24H288V436a4,4,0,0,1,4-4H444a4,4,0,0,1,4,4ZM296,408a8.009,8.009,0,0,1,8-8H432a8,8,0,0,1,0,16H304A8.009,8.009,0,0,1,296,408Zm168,28a20.015,20.015,0,0,0-10.4-17.54A23.994,23.994,0,0,0,432,384H304a23.994,23.994,0,0,0-21.6,34.46A20.015,20.015,0,0,0,272,436v12h-8V366.624a24.123,24.123,0,0,0,13.9-12.834,357.469,357.469,0,0,0,85.95,10.482,357.114,357.114,0,0,0,86.213-10.546A24.127,24.127,0,0,0,464,366.624Zm8-84a8,8,0,1,1,8-8A8.009,8.009,0,0,1,472,352ZM344,312H456a8,8,0,0,0,8-8V176a8,8,0,0,0-8-8H344a8,8,0,0,0-8,8V304A8,8,0,0,0,344,312Zm72-16H384V264a16,16,0,0,1,32,0Zm-24-72a8,8,0,1,1,8,8A8.009,8.009,0,0,1,392,224Zm-40-40h96V296H432V264a31.969,31.969,0,0,0-12.817-25.595,24,24,0,1,0-38.366,0A31.969,31.969,0,0,0,368,264v32H352Zm-8-40H456a8,8,0,0,0,8-8V40a8,8,0,0,0-8-8H344a8,8,0,0,0-8,8v96A8,8,0,0,0,344,144Zm64.41-29.47L412.9,128H387.1l4.49-13.47a8.015,8.015,0,0,0,.255-4.1L385.759,80h28.482l-6.086,30.431A8.015,8.015,0,0,0,408.41,114.53ZM352,48h96v80H429.767l-5.5-16.515,7.583-37.916A8,8,0,0,0,424,64H376a8,8,0,0,0-7.845,9.569l7.583,37.916L370.233,128H352ZM24,272H296a8,8,0,0,0,8-8V72a8,8,0,0,0-8-8H203.746l-37.6-45.121a8,8,0,0,0-12.292,0L116.254,64H24a8,8,0,0,0-8,8V264A8,8,0,0,0,24,272ZM276.686,80l-16,16H59.314l-16-16Zm-112,144h-79.8l49.877-29.927Zm22.628,0-8.411-8.412,35.857-21.515L244.686,224ZM256,112V212.686l-34.343-34.343a8,8,0,0,0-9.773-1.2L167.24,203.926l-25.583-25.583a8,8,0,0,0-9.773-1.2L64,217.87V112ZM59.314,240H260.686l16,16H43.314ZM272,228.686V107.314l16-16V244.686ZM48,107.314V228.686l-16,16V91.314ZM160,36.5,182.92,64H137.08ZM176,176a24,24,0,1,0-24-24A24.028,24.028,0,0,0,176,176Zm0-32a8,8,0,1,1-8,8A8.009,8.009,0,0,1,176,144ZM72,160a8,8,0,0,1,8-8h40a8,8,0,0,1,0,16H80A8,8,0,0,1,72,160Zm16-24a8,8,0,0,1,8-8h16a8,8,0,0,1,0,16H96A8,8,0,0,1,88,136Zm128,8a8,8,0,0,1,8-8h16a8,8,0,0,1,0,16H224A8,8,0,0,1,216,144Z" style="fill:url(#linear-gradient)"/></g></svg>
