<?xml version="1.0"?>
<svg xmlns="http://www.w3.org/2000/svg" xmlns:xlink="http://www.w3.org/1999/xlink" viewBox="0 0 512 512" width="512" height="512"><defs><linearGradient id="linear-gradient" x1="100.343" y1="407.657" x2="411.657" y2="96.343" gradientUnits="userSpaceOnUse"><stop offset="0" stop-color="#41dfd0"/><stop offset="1" stop-color="#ee83ef"/></linearGradient></defs><g id="gradient"><path d="M192,496H320a8,8,0,0,0,8-8V466.9l47.941-57.53a138.314,138.314,0,0,0-33.766-206.344h0A80.739,80.739,0,0,1,304,134.705v-33.45a100.59,100.59,0,0,1,29.657-71.6A8,8,0,0,0,328,16H184a8,8,0,0,0-5.657,13.657A100.59,100.59,0,0,1,208,101.255v33.45a80.742,80.742,0,0,1-38.175,68.317,138.314,138.314,0,0,0-33.766,206.344L184,466.9V488A8,8,0,0,0,192,496Zm0-44.5v-6.659a45.789,45.789,0,0,1,16-34.827,45.789,45.789,0,0,1,16,34.827V456H195.747ZM312,480H200v-8H312Zm-72-24V444.845a45.789,45.789,0,0,1,16-34.827,45.789,45.789,0,0,1,16,34.827V456Zm80-4.5-3.747,4.5H288V444.845a45.789,45.789,0,0,1,16-34.827,45.789,45.789,0,0,1,16,34.827Zm18.886-22.663A45.744,45.744,0,0,1,352,410.019c.5.43.979.884,1.46,1.335ZM201.394,32H310.606a116.577,116.577,0,0,0-9.873,16H211.267A116.577,116.577,0,0,0,201.394,32ZM223.54,144q.458-4.614.46-9.295v-33.45c0-1.758-.048-3.509-.124-5.255H248V80H222.067a116.415,116.415,0,0,0-4.092-16h76.05A117.483,117.483,0,0,0,288,101.255V112H240v16h48v6.705A96,96,0,0,0,297.413,176H214.587a97.132,97.132,0,0,0,5.964-16H248V144Zm-18.561,48H307.021a96.472,96.472,0,0,0,14.908,16H190.07A96.481,96.481,0,0,0,204.979,192Zm-69.44,69.154A122.622,122.622,0,0,1,167.6,224H344.4a122.062,122.062,0,0,1,46.417,80H121.181A122.6,122.6,0,0,1,135.539,261.154ZM120,320.819c0-.273.011-.546.013-.819H391.987c0,.273.013.546.013.819q0,3.6-.219,7.181H120.219Q120.006,324.421,120,320.819Zm38.531,90.522q.721-.677,1.471-1.322a45.756,45.756,0,0,1,13.112,18.821Zm5.907-18a8,8,0,0,0-8.876,0,61.961,61.961,0,0,0-7.286,5.69q-2.316-2.785-4.451-5.695l9.24-5.345A7.874,7.874,0,0,1,152,384a8,8,0,0,1,16,0,7.874,7.874,0,0,1-1.065,3.994l13.849,8.012a24,24,0,1,0-44.655-14.5A122.749,122.749,0,0,1,122.231,344H389.769a122.749,122.749,0,0,1-13.9,37.509,24,24,0,1,0-44.655,14.5l13.849-8.012A7.874,7.874,0,0,1,344,384a8,8,0,0,1,16,0,7.874,7.874,0,0,1-1.065,3.994l9.24,5.345q-2.147,2.917-4.467,5.715a61.877,61.877,0,0,0-7.27-5.71,8,8,0,0,0-8.876,0A61.846,61.846,0,0,0,328,414.386a61.846,61.846,0,0,0-19.562-21.042,8,8,0,0,0-8.876,0A61.846,61.846,0,0,0,280,414.386a61.846,61.846,0,0,0-19.562-21.042,8,8,0,0,0-8.876,0A61.846,61.846,0,0,0,232,414.386a61.846,61.846,0,0,0-19.562-21.042,8,8,0,0,0-8.876,0A61.846,61.846,0,0,0,184,414.386,61.846,61.846,0,0,0,164.438,393.344ZM256,232a32,32,0,1,0,32,32A32.036,32.036,0,0,0,256,232Zm0,48a16,16,0,1,1,16-16A16.019,16.019,0,0,1,256,280Zm80-48a32,32,0,1,0,32,32A32.036,32.036,0,0,0,336,232Zm0,48a16,16,0,1,1,16-16A16.019,16.019,0,0,1,336,280ZM176,232a32,32,0,1,0,32,32A32.036,32.036,0,0,0,176,232Zm0,48a16,16,0,1,1,16-16A16.019,16.019,0,0,1,176,280Zm40,96H200V360h16Zm96,0H296V360h16Zm-76.784,20.006a24,24,0,1,1,41.568,0l-13.849-8.012A7.874,7.874,0,0,0,264,384a8,8,0,0,0-16,0,7.874,7.874,0,0,0,1.065,3.994ZM280,96H264V80h16Zm0,64H264V144h16Z" style="fill:url(#linear-gradient)"/></g></svg>
