<svg height="512" viewBox="0 0 512 512" width="512" xmlns="http://www.w3.org/2000/svg" xmlns:xlink="http://www.w3.org/1999/xlink"><linearGradient id="linear-gradient" gradientUnits="userSpaceOnUse" x1="138.211" x2="464.321" y1="432.368" y2="106.257"><stop offset="0" stop-color="#41dfd0"/><stop offset="1" stop-color="#ee83ef"/></linearGradient><g id="gradient"><path d="m185.97 103.361a40.047 40.047 0 0 0 39.34 40.65q.336 0 .671 0a40 40 0 1 0 -40.011-40.655zm39.989-23.345h.4a24 24 0 0 1 23.6 24.389 24.026 24.026 0 0 1 -23.991 23.607h-.4a24 24 0 0 1 .388-48zm-113.229 29.009a40 40 0 1 0 56.562.927 40.047 40.047 0 0 0 -56.562-.927zm44.508 45.991a23.99 23.99 0 1 1 .556-33.937 24.028 24.028 0 0 1 -.556 33.937zm-53.2 107.02a40.038 40.038 0 1 0 -.672-.006q.334.006.667.006zm-24.018-40.393a24.026 24.026 0 0 1 23.991-23.608h.4a24 24 0 1 1 -24.389 23.6zm29.932 57.065a40 40 0 1 0 56.562.926 40.048 40.048 0 0 0 -56.562-.925zm44.508 45.992a24 24 0 1 1 -33.381-34.492 24 24 0 1 1 33.381 34.492zm66.921 59.281h.664a39.979 39.979 0 1 0 -.664 0zm.649-64h.4a23.953 23.953 0 1 1 -.4 0zm84.77 30.244h.672a39.951 39.951 0 1 0 -.672 0zm-16.036-57.241a23.836 23.836 0 0 1 16.679-6.754q.2 0 .405 0a24 24 0 1 1 -17.084 6.751zm52.567-27.025h.664a39.979 39.979 0 1 0 -.664 0zm-16.036-57.241a24 24 0 0 1 40.687 17.639 24 24 0 1 1 -40.687-17.639zm-6.318-156.181a8 8 0 0 0 -1.365-13.316 207.824 207.824 0 0 0 -240.262 35.313c-82.416 79.76-84.577 211.7-4.817 294.116a208.031 208.031 0 0 0 337.277-234.162 8 8 0 0 0 -13.265-1.8c-1.164 1.343-2.271 2.519-3.38 3.593a55.77 55.77 0 0 1 -56.194 13.059l63.258-73.854a24.112 24.112 0 0 0 -2.3-33.565 24 24 0 0 0 -34.149 2.344l-61.745 72.088a56.17 56.17 0 0 1 13.239-60.553c1.111-1.074 2.326-2.141 3.703-3.263zm-12.509 83.231.023-.027 69.438-81.068a8 8 0 0 1 11.38-.781 8.035 8.035 0 0 1 .767 11.186l-70.376 82.161-.006.007-56.59 66.069-11.965-10.615zm-81.568 100.163a8 8 0 0 0 -6.407-5.151l-13.765-1.905 7.481-8.436a25.092 25.092 0 0 1 17.386-8.454l5.527-.332 18.26 16.193-1.99 14.354a25.258 25.258 0 0 1 -32.98 20.511l-12.758-4.236a62.729 62.729 0 0 0 16.816-13.438l.909-1.027a8 8 0 0 0 1.521-8.079zm65.676-106.2-56.496 65.955-5.448.327a40.991 40.991 0 0 0 -28.4 13.81l-17.4 19.62a8 8 0 0 0 4.889 13.233l10.734 1.485a46.442 46.442 0 0 1 -20.055 5.869 8 8 0 0 0 -2.041 15.578l37.012 12.292a41.259 41.259 0 0 0 53.87-33.5l2.251-16.273 56.418-65.869a71.659 71.659 0 0 0 74.009-10.568 191.844 191.844 0 0 1 -44.395 210.284c-76.076 73.624-197.868 71.631-271.493-4.446s-71.631-197.872 4.446-271.497a191.831 191.831 0 0 1 211.628-37.486 72.232 72.232 0 0 0 -9.533 81.186zm195.424 158.269h-48a8 8 0 0 0 -8 8v192a8 8 0 0 0 8 8h48a8 8 0 0 0 8-8v-192a8 8 0 0 0 -8-8zm-8 192h-32v-32h32zm0-48h-32v-32h32zm0-48h-32v-32h32zm0-48h-32v-32h32z" fill="url(#linear-gradient)"/></g></svg>